<?xml version="1.0" encoding="UTF-8" standalone="no"?>
<!-- Created with Inkscape (http://www.inkscape.org/) -->

<svg
   width="1312.5352"
   height="328.54855"
   viewBox="0 0 1312.5352 328.54855"
   version="1.1"
   id="svg5"
   xml:space="preserve"
   inkscape:export-filename="logo_transparent.svg"
   inkscape:export-xdpi="96"
   inkscape:export-ydpi="96"
   inkscape:version="1.2.1 (9c6d41e410, 2022-07-14)"
   sodipodi:docname="znachodka.svg"
   xmlns:inkscape="http://www.inkscape.org/namespaces/inkscape"
   xmlns:sodipodi="http://sodipodi.sourceforge.net/DTD/sodipodi-0.dtd"
   xmlns="http://www.w3.org/2000/svg"
   xmlns:svg="http://www.w3.org/2000/svg"><sodipodi:namedview
     id="namedview7"
     pagecolor="#ffffff"
     bordercolor="#666666"
     borderopacity="1.0"
     inkscape:showpageshadow="2"
     inkscape:pageopacity="0.0"
     inkscape:pagecheckerboard="0"
     inkscape:deskcolor="#d1d1d1"
     inkscape:document-units="px"
     showgrid="false"
     inkscape:zoom="0.61656217"
     inkscape:cx="930.96857"
     inkscape:cy="517.38497"
     inkscape:window-width="1920"
     inkscape:window-height="1007"
     inkscape:window-x="0"
     inkscape:window-y="0"
     inkscape:window-maximized="1"
     inkscape:current-layer="layer5"><inkscape:grid
       type="xygrid"
       id="grid1349" /></sodipodi:namedview><defs
     id="defs2"><rect
       x="250.5723"
       y="299.85837"
       width="802.86816"
       height="198.42584"
       id="rect869" /><rect
       x="154.37051"
       y="157.92065"
       width="1638.2322"
       height="773.86572"
       id="rect1422" /></defs><g
     inkscape:groupmode="layer"
     id="layer5"
     inkscape:label="slogan"
     transform="translate(-303.73248,-375.77774)"><g
       id="g2747"
       inkscape:export-filename="../coding/training/it_academy/znachodka/catalog/static/catalog/images/logo_transparent.svg"
       inkscape:export-xdpi="96"
       inkscape:export-ydpi="96"><g
         aria-label="znachodka"
         transform="translate(139.4947,177.27047)"
         id="text1420"
         style="font-size:266.667px;line-height:1.25;font-family:Nunito;-inkscape-font-specification:'Nunito, @wght=800';font-variation-settings:'wght' 800;white-space:pre;shape-inside:url(#rect1422);display:inline;fill:#f9f9f9;fill-opacity:1"><path
           d="m 181.03779,388.9075 q -5.86667,0 -9.86668,-2.93334 -4,-3.2 -5.33334,-8.00001 -1.33333,-4.80001 0,-10.40001 1.60001,-5.60001 6.13335,-10.40002 l 65.33341,-78.40009 v 9.33334 h -57.86674 q -7.20001,0 -11.20001,-4 -4.00001,-4.00001 -4.00001,-10.93335 0,-7.46667 4.00001,-11.20001 4,-4.00001 11.20001,-4.00001 h 77.06676 q 7.20001,0 11.46668,3.20001 4.26667,3.2 5.60001,8.00001 1.6,4.53334 0.26667,10.13334 -1.06667,5.33334 -5.60001,10.13335 l -66.93342,80.0001 v -10.40002 h 61.86675 q 15.20002,0 15.20002,14.93335 0,7.20001 -4.00001,11.20002 -4,3.73334 -11.20001,3.73334 z"
           id="path2142"
           style="fill:#f9f9f9;fill-opacity:1" /><path
           d="m 318.1045,391.3075 q -9.86668,0 -15.20002,-5.33334 -5.06667,-5.33334 -5.06667,-15.20002 v -94.66678 q 0,-9.86668 5.06667,-14.93335 5.33334,-5.33334 14.66669,-5.33334 9.60001,0 14.66668,5.33334 5.06667,5.06667 5.06667,14.93335 v 15.20002 l -2.93333,-8.80001 q 6.13334,-13.06669 18.13335,-20.00003 12.26668,-7.20001 27.73337,-7.20001 15.73335,0 25.8667,6.13334 10.13334,5.86668 15.20002,18.13336 5.06667,12.00001 5.06667,30.6667 v 60.53341 q 0,9.86668 -5.33334,15.20002 -5.06667,5.33334 -14.93335,5.33334 -9.60001,0 -14.93335,-5.33334 -5.06668,-5.33334 -5.06668,-15.20002 V 312.1074 q 0,-13.60001 -5.06667,-19.46669 -4.8,-6.13334 -14.93335,-6.13334 -12.80002,0 -20.53336,8.00001 -7.46667,8.00001 -7.46667,21.33336 v 54.9334 q 0,20.53336 -20.00003,20.53336 z"
           id="path2144"
           style="fill:#f9f9f9;fill-opacity:1" /><path
           d="m 500.77119,391.84083 q -14.40002,0 -25.8667,-5.6 -11.46668,-5.60001 -17.86669,-15.20002 -6.40001,-9.60001 -6.40001,-21.60003 0,-14.40002 7.46668,-22.66669 7.46667,-8.53335 24.26669,-12.00002 16.80003,-3.73334 44.53339,-3.73334 h 14.13335 v 20.80003 h -13.86668 q -13.60002,0 -22.13336,1.6 -8.26668,1.33334 -12.00002,4.80001 -3.46667,3.46667 -3.46667,9.60001 0,7.46668 5.06668,12.26668 5.33334,4.80001 15.20001,4.80001 7.73335,0 13.60002,-3.46667 6.13334,-3.73334 9.60001,-9.86668 3.46667,-6.40001 3.46667,-14.40002 v -30.6667 q 0,-11.73335 -5.33334,-16.53336 -5.33334,-5.06667 -18.13335,-5.06667 -7.20001,0 -15.73335,1.86667 -8.26668,1.6 -18.40003,5.6 -5.86667,2.66667 -10.40001,1.33334 -4.53334,-1.6 -6.93334,-5.33334 -2.4,-4 -2.4,-8.53334 0,-4.80001 2.66667,-9.06668 2.66667,-4.53334 8.80001,-6.66668 12.53335,-5.06667 23.46669,-6.93334 11.20002,-1.86667 20.53336,-1.86667 20.53336,0 33.60004,6.13334 13.33335,5.86668 20.00003,18.40003 6.66667,12.26668 6.66667,31.73337 v 59.20007 q 0,9.86668 -4.80001,15.20002 -4.8,5.33334 -13.86668,5.33334 -9.06668,0 -14.13335,-5.33334 -4.80001,-5.33334 -4.80001,-15.20002 v -9.86668 l 1.86667,1.6 q -1.6,9.06668 -6.93334,15.73336 -5.06667,6.4 -13.06668,10.13334 -8.00001,3.46667 -18.40002,3.46667 z"
           id="path2146"
           style="fill:#f9f9f9;fill-opacity:1" /><path
           d="m 668.7712,391.84083 q -21.33336,0 -37.33338,-8.26667 -15.73335,-8.53335 -24.26669,-24.00003 -8.53335,-15.46669 -8.53335,-36.53338 0,-15.73335 4.80001,-28.2667 4.80001,-12.53335 13.86668,-21.33336 9.33335,-8.80001 22.40003,-13.33335 13.06668,-4.80001 29.0667,-4.80001 8.26668,0 17.60002,2.13334 9.33335,1.86667 18.40003,6.66667 5.33334,2.40001 7.20001,6.93335 2.13333,4.26667 1.6,9.06667 -0.53334,4.53334 -3.46667,8.26668 -2.66667,3.46667 -6.93335,4.80001 -4.26667,1.06666 -9.60001,-1.60001 -5.06667,-2.93333 -10.66668,-4.26667 -5.33334,-1.33333 -10.13334,-1.33333 -8.00001,0 -14.13335,2.66667 -6.13334,2.4 -10.40002,7.20001 -4,4.53333 -6.4,11.46668 -2.13334,6.93334 -2.13334,16.00002 0,17.60002 8.53334,27.73336 8.80001,9.86668 24.53337,9.86668 4.8,0 10.13334,-1.06667 5.33334,-1.33333 10.66668,-4.26667 5.33334,-2.66667 9.60001,-1.33333 4.26668,1.33333 6.66668,5.06667 2.66667,3.46667 2.93334,8.26668 0.53333,4.53334 -1.60001,9.06667 -1.86666,4.26668 -6.93334,6.66668 -9.06668,4.53334 -18.13335,6.40001 -9.06668,2.13333 -17.33336,2.13333 z"
           id="path2148"
           style="fill:#f9f9f9;fill-opacity:1" /><path
           d="m 752.77146,391.3075 q -9.86668,0 -15.20002,-5.33334 -5.06667,-5.33334 -5.06667,-15.20002 V 219.04062 q 0,-10.13334 5.06667,-15.20002 5.33334,-5.33334 15.20002,-5.33334 9.60001,0 14.66669,5.33334 5.33334,5.06668 5.33334,15.20002 v 63.46675 h -3.73334 q 6.13334,-13.06669 18.13335,-20.00003 12.26669,-7.20001 27.73337,-7.20001 15.73335,0 25.8667,6.13334 10.13335,5.86668 15.20002,18.13336 5.06667,12.00001 5.06667,30.6667 v 60.53341 q 0,9.86668 -5.33334,15.20002 -5.06667,5.33334 -14.93335,5.33334 -9.60001,0 -14.93335,-5.33334 -5.06667,-5.33334 -5.06667,-15.20002 V 312.1074 q 0,-13.60001 -5.06668,-19.46669 -4.8,-6.13334 -14.93335,-6.13334 -12.80001,0 -20.53336,8.00001 -7.46667,8.00001 -7.46667,21.33336 v 54.9334 q 0,20.53336 -20.00003,20.53336 z"
           id="path2150"
           style="fill:#f9f9f9;fill-opacity:1" /><path
           d="m 1099.1719,391.84083 q -17.0667,0 -30.1333,-8.26667 -12.8001,-8.26668 -20.0001,-23.73337 -7.2,-15.46668 -7.2,-36.53337 0,-21.0667 7.2,-36.26671 7.2,-15.20002 20.0001,-23.4667 13.0666,-8.26668 30.1333,-8.26668 15.4667,0 27.2001,7.46668 12,7.46667 16.2667,19.46669 h -2.9334 v -63.20008 q 0,-10.13334 5.0667,-15.20002 5.0667,-5.33334 14.9333,-5.33334 9.6001,0 14.9334,5.33334 5.3333,5.06668 5.3333,15.20002 v 151.73352 q 0,9.86668 -5.3333,15.20002 -5.0667,5.33334 -14.6667,5.33334 -9.6,0 -14.9333,-5.33334 -5.0667,-5.33334 -5.0667,-15.20002 v -18.13335 l 2.9333,10.40001 q -3.7333,13.06668 -16,21.06669 -12,7.73334 -27.7334,7.73334 z m 12,-30.13337 q 8.8001,0 15.2001,-4.26667 6.4,-4.26667 10.1333,-12.53335 3.7333,-8.53334 3.7333,-21.60002 0,-19.46669 -8,-28.53337 -8,-9.33335 -21.0667,-9.33335 -8.5333,0 -15.2,4.00001 -6.4,4 -10.1333,12.53335 -3.4667,8.26667 -3.4667,21.33336 0,19.46669 8,29.0667 8,9.33334 20.8,9.33334 z"
           id="path2154"
           style="fill:#f9f9f9;fill-opacity:1" /><path
           d="m 1231.1722,391.3075 q -9.8667,0 -15.2,-5.33334 -5.0667,-5.33334 -5.0667,-15.20002 V 219.04062 q 0,-10.13334 5.0667,-15.20002 5.3333,-5.33334 15.2,-5.33334 9.6,0 14.6667,5.33334 5.3333,5.06668 5.3333,15.20002 v 93.06678 h 0.5334 l 38.6667,-42.93338 q 5.8667,-6.66668 10.6667,-9.86668 5.0666,-3.46667 13.3333,-3.46667 8.2667,0 12.5334,4.26667 4.5333,4.26667 4.5333,10.40001 0.2667,5.86668 -5.0667,12.00002 l -40.8,45.60005 V 312.9074 l 45.3334,52.26673 q 5.0666,6.13334 4.2666,12.26669 -0.5333,6.13334 -5.3333,10.13334 -4.8,3.73334 -12.2667,3.73334 -9.0667,0 -14.6667,-3.46667 -5.3333,-3.46667 -10.9333,-10.66668 l -40.2667,-44.80006 h -0.5334 v 38.40005 q 0,20.53336 -20,20.53336 z"
           id="path2156"
           style="fill:#f9f9f9;fill-opacity:1" /><path
           d="m 1402.6394,391.84083 q -14.4,0 -25.8667,-5.6 -11.4667,-5.60001 -17.8667,-15.20002 -6.4,-9.60001 -6.4,-21.60003 0,-14.40002 7.4667,-22.66669 7.4667,-8.53335 24.2667,-12.00002 16.8,-3.73334 44.5334,-3.73334 h 14.1333 v 20.80003 h -13.8667 q -13.6,0 -22.1333,1.6 -8.2667,1.33334 -12,4.80001 -3.4667,3.46667 -3.4667,9.60001 0,7.46668 5.0667,12.26668 5.3333,4.80001 15.2,4.80001 7.7333,0 13.6,-3.46667 6.1333,-3.73334 9.6,-9.86668 3.4667,-6.40001 3.4667,-14.40002 v -30.6667 q 0,-11.73335 -5.3334,-16.53336 -5.3333,-5.06667 -18.1333,-5.06667 -7.2,0 -15.7334,1.86667 -8.2666,1.6 -18.4,5.6 -5.8667,2.66667 -10.4,1.33334 -4.5333,-1.6 -6.9333,-5.33334 -2.4,-4 -2.4,-8.53334 0,-4.80001 2.6666,-9.06668 2.6667,-4.53334 8.8,-6.66668 12.5334,-5.06667 23.4667,-6.93334 11.2001,-1.86667 20.5334,-1.86667 20.5334,0 33.6,6.13334 13.3334,5.86668 20.0001,18.40003 6.6666,12.26668 6.6666,31.73337 v 59.20007 q 0,9.86668 -4.8,15.20002 -4.8,5.33334 -13.8667,5.33334 -9.0666,0 -14.1333,-5.33334 -4.8,-5.33334 -4.8,-15.20002 v -9.86668 l 1.8667,1.6 q -1.6,9.06668 -6.9334,15.73336 -5.0667,6.4 -13.0667,10.13334 -8,3.46667 -18.4,3.46667 z"
           id="path2158"
           style="fill:#f9f9f9;fill-opacity:1" /></g><g
         id="g2069"
         transform="matrix(0.18147266,0,0,0.18147266,1435.1866,717.87755)"
         style="display:inline;fill:#262223;fill-opacity:1"
         inkscape:export-filename="../coding/training/it_academy/znachodka/catalog/static/catalog/images/logo_title.png"
         inkscape:export-xdpi="96"
         inkscape:export-ydpi="96"><g
           id="g2037"
           style="fill:#262223;fill-opacity:1"
           transform="translate(-2168.4949,53.198328)"><path
             id="path2165"
             d="m 274.72563,-1629.5703 c -36.32282,0.4299 -72.58388,6.0521 -107.31188,16.713 -34.03709,10.4339 -66.58314,25.7178 -96.336044,45.2676 -48.095173,31.5693 -88.856386,74.2422 -118.123764,123.7766 -20.189898,34.1198 -34.920542,71.4535 -43.516906,110.1542 -9.634456,43.1905 -11.649386,88.0623 -5.965774,131.9465 5.105164,39.5806 16.478868,78.3524 33.655512,114.3792 16.307738,34.2456 37.848576,65.9838 63.61275232,93.81879 25.46948168,27.55106 55.00859168,51.35119 87.44320568,70.22445 34.199158,19.92926 71.576728,34.36573 110.270868,42.68815 46.05109,9.92878 93.94509,11.20363 140.46216,3.7652 43.28805,-6.88413 85.37095,-21.32403 123.71896,-42.56155 7.05216,-3.90156 13.98193,-8.02568 20.76619,-12.37675 4.48886,11.46437 11.44537,21.9499 20.28273,30.52425 69.61489,69.60922 139.21852,139.22985 208.84046,208.83194 11.67896,11.57488 26.65094,19.78522 42.7051,23.35632 17.36717,3.93018 35.91226,2.452 52.42381,-4.22186 14.38239,-5.75957 27.12368,-15.45043 36.66256,-27.64408 10.57539,-13.45566 17.04789,-30.0659 18.41196,-47.12256 1.50863,-17.9032 -2.59402,-36.24234 -11.67314,-51.75391 -4.18213,-7.2258 -9.4619,-13.7848 -15.45779,-19.58447 -69.43452,-69.39577 -138.85633,-138.80435 -208.2988,-208.19222 -8.3205,-8.1765 -18.31363,-14.6273 -29.16105,-18.9106 24.0424,-37.4811 41.26267,-79.3018 50.70306,-122.8143 10.72314,-49.1905 11.53388,-100.4963 2.51367,-150.0212 -1.72071,-9.3285 -3.76135,-18.5942 -5.6378,-27.8921 -0.0722,-0.7186 -0.20575,-1.2363 -0.74602,-0.42 -33.88642,33.2393 -67.77466,66.477 -101.66202,99.7153 -0.216,8.0621 -0.56914,16.1259 -1.41173,24.1499 -3.63794,36.2527 -14.7669,71.7621 -32.69927,103.4918 -16.01245,28.424 -37.45716,53.7392 -62.71018,74.379 -24.51924,20.0743 -52.71424,35.6326 -82.76388,45.6897 -33.18821,11.13677 -68.58991,15.5765 -103.50334,13.07617 -33.85676,-2.40487 -67.24754,-11.34584 -97.71874,-26.31117 -27.67547,-13.5554 -52.88885,-32.0733 -74.202163,-54.324 -22.824679,-23.7604 -41.152444,-51.8351 -53.621222,-82.3364 -14.94177,-36.3738 -21.556381,-76.1083 -19.368695,-115.3627 2.036006,-37.4332 12.086608,-74.426 29.430999,-107.6699 15.830398,-30.4574 37.759841,-57.6925 63.982141,-79.8279 25.1683,-21.2902 54.39324,-37.7581 85.6409,-48.2599 36.9983,-12.4836 76.76686,-16.6174 115.54821,-12.1041 36.17412,4.159 71.47555,15.8613 102.90118,34.2676 22.43556,13.1168 42.90874,29.5872 60.53229,48.687 9.48979,10.3222 18.0779,21.4598 25.81685,33.1479 -61.34844,60.1845 -122.69688,120.3688 -184.04533,180.5532 -50.92807,-48.7756 -101.84325,-97.5651 -152.77938,-146.3323 -9.2552,-8.7234 -21.50468,-14.1872 -34.18203,-15.2263 -13.47857,-1.1915 -27.32774,2.5961 -38.307429,10.5086 -10.614867,7.5425 -18.525031,18.8089 -21.935005,31.383 -3.678047,13.2621 -2.357217,27.8325 3.671235,40.2071 3.201255,6.6706 7.768572,12.6442 13.213726,17.6404 63.823653,61.1407 127.636383,122.293 191.466893,183.4265 9.36643,8.8735 21.82032,14.3989 34.68676,15.374 13.33921,1.0934 27.0355,-2.6486 37.88427,-10.5084 4.62444,-3.2471 8.44028,-7.4463 12.49652,-11.3414 126.08136,-123.6547 252.17149,-247.3005 378.24735,-370.9607 8.89565,-8.7739 14.75232,-20.5468 16.38951,-32.9332 1.83742,-13.3263 -1.20326,-27.2668 -8.49181,-38.581 -7.19011,-11.2849 -18.43029,-19.9401 -31.23045,-23.8777 -13.09176,-4.1144 -27.65179,-3.2887 -40.19296,2.2837 -6.93692,3.0298 -13.19303,7.5137 -18.46558,12.931 -25.21719,24.7654 -50.43439,49.5309 -75.65157,74.2962 -12.42428,-16.7164 -26.18361,-32.455 -41.29398,-46.7974 -28.41815,-27.122 -61.08627,-49.7876 -96.47995,-66.8379 -35.99445,-17.3741 -74.77351,-28.9296 -114.38721,-34.2108 -18.23833,-2.4338 -36.65024,-3.5434 -55.04894,-3.3355 z"
             style="fill:#262223;fill-opacity:1;stroke-width:0.960729" /></g><g
           id="g2039"
           style="fill:#262223;fill-opacity:1" /><g
           id="g2041"
           style="fill:#262223;fill-opacity:1" /><g
           id="g2043"
           style="fill:#262223;fill-opacity:1" /><g
           id="g2045"
           style="fill:#262223;fill-opacity:1" /><g
           id="g2047"
           style="fill:#262223;fill-opacity:1" /><g
           id="g2049"
           style="fill:#262223;fill-opacity:1" /><g
           id="g2051"
           style="fill:#262223;fill-opacity:1" /><g
           id="g2053"
           style="fill:#262223;fill-opacity:1" /><g
           id="g2055"
           style="fill:#262223;fill-opacity:1" /><g
           id="g2057"
           style="fill:#262223;fill-opacity:1" /><g
           id="g2059"
           style="fill:#262223;fill-opacity:1" /><g
           id="g2061"
           style="fill:#262223;fill-opacity:1" /><g
           id="g2063"
           style="fill:#262223;fill-opacity:1" /><g
           id="g2065"
           style="fill:#262223;fill-opacity:1" /><g
           id="g2067"
           style="fill:#262223;fill-opacity:1" /></g><g
         id="g2684"><g
           aria-label="Ўсё вяртаецца!"
           id="text2170"
           style="font-size:66.6667px;font-family:Nunito;-inkscape-font-specification:'Nunito, @wght=400';font-variation-settings:'wght' 400;white-space:pre;display:none;fill:#262223;fill-opacity:1"
           transform="matrix(1.5060406,0,0,1.5060406,-424.36223,-438.23695)"><path
             d="m 499.91185,746.58461 q -0.93333,0 -1.66667,-0.46666 -0.66666,-0.53334 -0.8,-1.4 -0.13333,-0.86667 0.46667,-1.93334 l 6.13333,-11.93333 v 2.13333 l -19.06666,-30.53333 q -0.6,-1 -0.53334,-1.86666 0.13334,-0.86667 0.8,-1.4 0.66667,-0.53334 1.66667,-0.53334 1.06667,0 1.66667,0.53334 0.6,0.46666 1.13333,1.4 l 17,27.33333 h -1.13334 l 14,-27.26667 q 0.46667,-0.93333 1.06667,-1.46666 0.6,-0.53334 1.66667,-0.53334 1,0 1.66666,0.53334 0.66667,0.46666 0.8,1.33333 0.2,0.8 -0.4,1.93333 l -21.66666,42.13333 q -0.4,0.86667 -1.06667,1.46667 -0.6,0.53333 -1.73333,0.53333 z m 4.66666,-51.13333 q -4,0 -7.19999,-1.8 -3.2,-1.8 -4.86667,-5.46666 -0.4,-1 -0.13333,-1.6 0.26666,-0.66667 1,-0.93334 0.73333,-0.26666 1.33333,0 0.6,0.26667 1,1.13334 1.26667,2.53333 3.46667,3.86666 2.19999,1.33334 5.39999,1.33334 3.26667,0 5.4,-1.33334 2.2,-1.33333 3.46667,-3.86666 0.46667,-0.86667 1,-1.13334 0.6,-0.26666 1.33333,0 0.8,0.26667 1,0.93334 0.26667,0.6 -0.2,1.6 -1.73333,3.66666 -4.93333,5.46666 -3.2,1.8 -7.06667,1.8 z"
             id="path2176"
             style="fill:#262223;fill-opacity:1" /><path
             d="m 540.8885,746.71795 q -4.86667,0 -8.4,-2.13334 -3.53334,-2.13333 -5.46667,-5.93333 -1.86667,-3.86667 -1.86667,-8.93333 0,-3.86667 1.06667,-6.93333 1.06667,-3.06667 3.13333,-5.2 2.06667,-2.2 4.93334,-3.33334 2.93333,-1.13333 6.6,-1.13333 2.4,0 5,0.73333 2.6,0.73334 4.73333,2.53334 0.66667,0.46666 0.86667,1.13333 0.2,0.66667 0,1.33333 -0.2,0.6 -0.66667,1.06667 -0.46667,0.4 -1.2,0.46667 -0.66667,0.0667 -1.4,-0.46667 -1.73333,-1.33333 -3.53333,-1.86667 -1.8,-0.53333 -3.46667,-0.53333 -2.6,0 -4.53333,0.86667 -1.93334,0.8 -3.26667,2.33333 -1.33333,1.53333 -2.06667,3.8 -0.66666,2.26667 -0.66666,5.26666 0,5.8 2.73333,9.2 2.73333,3.33334 7.8,3.33334 1.66667,0 3.4,-0.53334 1.8,-0.53333 3.6,-1.86666 0.73333,-0.53334 1.4,-0.46667 0.66667,0.0667 1.13333,0.53333 0.46667,0.4 0.6,1.06667 0.2,0.66667 0,1.33333 -0.2,0.6 -0.86666,1.06667 -2.13334,1.73333 -4.66667,2.53333 -2.53333,0.73334 -4.93333,0.73334 z"
             id="path2178"
             style="fill:#262223;fill-opacity:1" /><path
             d="m 573.28847,746.71795 q -5.13334,0 -8.86667,-2 -3.66667,-2.06667 -5.73333,-5.8 -2,-3.73334 -2,-8.93334 0,-5.06666 2,-8.79999 2,-3.8 5.46666,-5.93334 3.53334,-2.13333 8.13334,-2.13333 3.26666,0 5.86666,1.13333 2.6,1.06667 4.4,3.13334 1.86667,2.06666 2.8,5 1,2.93333 1,6.59999 0,1.06667 -0.6,1.6 -0.6,0.46667 -1.73333,0.46667 h -23.2 v -3.53333 h 21.93333 l -1.06666,0.86667 q 0,-3.6 -1.06667,-6.06667 -1.06667,-2.53333 -3.13333,-3.86667 -2,-1.33333 -5.06667,-1.33333 -3.4,0 -5.8,1.6 -2.33333,1.53333 -3.53333,4.33333 -1.2,2.73334 -1.2,6.4 v 0.4 q 0,6.13333 2.93333,9.33333 3,3.2 8.46667,3.2 2.26666,0 4.46666,-0.6 2.26667,-0.6 4.4,-2 0.93334,-0.6 1.66667,-0.53333 0.8,0 1.26667,0.46667 0.46666,0.4 0.6,1.06666 0.2,0.6 -0.13334,1.33334 -0.26666,0.73333 -1.13333,1.26666 -2.2,1.6 -5.2,2.46667 -3,0.86667 -5.93333,0.86667 z m 4.86666,-41 q -1.53333,0 -2.4,-0.8 -0.8,-0.8 -0.8,-2.26667 0,-1.46666 0.8,-2.26666 0.86667,-0.86667 2.4,-0.86667 1.46667,0 2.26667,0.86667 0.8,0.8 0.8,2.26666 0,1.46667 -0.8,2.26667 -0.8,0.8 -2.26667,0.8 z m -11.66666,0 q -1.46667,0 -2.33334,-0.8 -0.8,-0.8 -0.8,-2.26667 0,-1.46666 0.8,-2.26666 0.86667,-0.86667 2.33334,-0.86667 1.53333,0 2.33333,0.86667 0.8,0.8 0.8,2.26666 0,1.46667 -0.8,2.26667 -0.8,0.8 -2.33333,0.8 z"
             id="path2180"
             style="fill:#262223;fill-opacity:1" /><path
             d="m 614.75508,746.11795 q -1.33333,0 -2.06666,-0.73334 -0.73334,-0.73333 -0.73334,-2.06666 v -26.8 q 0,-1.33333 0.73334,-2.06667 0.73333,-0.73333 2.06666,-0.73333 h 13 q 3.86667,0 6.33334,1 2.46666,0.93333 3.66666,2.86667 1.2,1.86666 1.2,4.66666 0,3.06667 -2.2,5.2 -2.13333,2.13333 -5.6,2.53333 v -0.86666 q 4.13334,0.13333 6.46667,2.33333 2.4,2.2 2.4,5.73333 0,4.13334 -3.06667,6.53334 -3.06666,2.4 -8.66666,2.4 z m 2.33334,-3.66667 h 11 q 3.26666,0 5,-1.4 1.8,-1.46667 1.8,-4.13333 0,-2.66667 -1.8,-4.06667 -1.73334,-1.4 -5,-1.4 h -11 z m 0,-14.66666 h 10.4 q 3,0 4.66666,-1.4 1.73334,-1.4 1.73334,-3.86667 0,-2.46667 -1.73334,-3.8 -1.66666,-1.33333 -4.66666,-1.33333 h -10.4 z"
             id="path2182"
             style="fill:#262223;fill-opacity:1" /><path
             d="m 671.15514,746.58461 q -1.26667,0 -1.93334,-0.66666 -0.66666,-0.73334 -0.66666,-1.93334 v -10.2 h -4.73334 q -2.6,0 -4.46666,1.33334 -1.86667,1.33333 -3,3.26666 l -3.8,6.66667 q -0.6,1 -1.4,1.33333 -0.8,0.33334 -1.6,0.13334 -0.8,-0.2 -1.4,-0.8 -0.6,-0.6 -0.73334,-1.4 -0.13333,-0.86667 0.4,-1.8 l 3.2,-5.4 q 1.13334,-2 3,-3.33334 1.86667,-1.33333 3.8,-1.33333 h 0.86667 v 0.6 q -5.46667,0 -8.46667,-2.53333 -3,-2.53333 -3,-7.06667 0,-3 1.26667,-5.13333 1.33333,-2.2 4,-3.4 2.66667,-1.2 6.6,-1.2 h 11.73333 q 1.4,0 2.13334,0.73333 0.73333,0.73334 0.73333,2.06667 v 27.46666 q 0,1.2 -0.73333,1.93334 -0.66667,0.66666 -1.8,0.66666 z m -11.06667,-16.73333 h 8.46667 v -12.33333 h -8.46667 q -3.93333,0 -5.8,1.66667 -1.86667,1.6 -1.86667,4.46666 0,2.93334 1.86667,4.6 1.86667,1.6 5.8,1.6 z"
             id="path2184"
             style="fill:#262223;fill-opacity:1" /><path
             d="m 687.08844,758.58461 q -1.33333,0 -2,-0.73333 -0.66667,-0.66667 -0.66667,-2 v -39.86666 q 0,-1.33334 0.66667,-2 0.66667,-0.73334 1.93333,-0.73334 1.33334,0 2,0.73334 0.73334,0.66666 0.73334,2 v 6.33333 l -0.73334,-0.93333 q 1.06667,-3.8 4.2,-6 3.2,-2.26667 7.6,-2.26667 4.33334,0 7.53334,2.06667 3.26666,2 5,5.8 1.8,3.73333 1.8,8.93333 0,5.13333 -1.8,8.93333 -1.73334,3.73333 -4.93334,5.8 -3.2,2.06667 -7.6,2.06667 -4.4,0 -7.53333,-2.2 -3.13333,-2.26667 -4.26667,-6 h 0.8 v 17.33333 q 0,1.33333 -0.73333,2 -0.73333,0.73333 -2,0.73333 z m 12.6,-16.2 q 3.06667,0 5.26667,-1.46666 2.26666,-1.46667 3.46666,-4.26667 1.26667,-2.8 1.26667,-6.73333 0,-6.06667 -2.73333,-9.26667 -2.66667,-3.2 -7.26667,-3.2 -3,0 -5.26667,1.46667 -2.26666,1.4 -3.53333,4.2 -1.2,2.73333 -1.2,6.8 0,6 2.73333,9.26666 2.73334,3.2 7.26667,3.2 z"
             id="path2186"
             style="fill:#262223;fill-opacity:1" /><path
             d="m 733.35514,746.58461 q -1.26666,0 -2,-0.73333 -0.73333,-0.73333 -0.73333,-2.06667 v -25.73333 h -9.73333 q -2.53333,0 -2.53333,-2.2 0,-1 0.66666,-1.53333 0.66667,-0.6 1.86667,-0.6 h 24.93333 q 2.46667,0 2.46667,2.13333 0,1.06667 -0.66667,1.66667 -0.6,0.53333 -1.8,0.53333 h -9.8 v 25.73333 q 0,1.33334 -0.66667,2.06667 -0.6,0.73333 -2,0.73333 z"
             id="path2188"
             style="fill:#262223;fill-opacity:1" /><path
             d="m 763.75515,746.71795 q -3.33333,0 -6,-1.26667 -2.6,-1.33333 -4.13333,-3.6 -1.53334,-2.26667 -1.53334,-5.06667 0,-3.6 1.8,-5.66666 1.86667,-2.06667 6.06667,-2.93333 4.26667,-0.86667 11.6,-0.86667 h 3 v 3.53333 h -2.93333 q -5.4,0 -8.53334,0.53333 -3.06666,0.46667 -4.33333,1.66667 -1.2,1.2 -1.2,3.4 0,2.73333 1.86667,4.46667 1.93333,1.73333 5.2,1.73333 2.66666,0 4.66666,-1.26667 2.06667,-1.26666 3.2,-3.46666 1.2,-2.2 1.2,-5.06667 v -7.6 q 0,-4.13333 -1.66666,-5.93333 -1.66667,-1.86667 -5.46667,-1.86667 -2.33333,0 -4.66667,0.6 -2.33333,0.6 -4.93333,1.93334 -0.93333,0.46666 -1.6,0.33333 -0.66667,-0.2 -1.06667,-0.73333 -0.4,-0.53334 -0.46666,-1.2 -0.0667,-0.73334 0.26666,-1.4 0.4,-0.66667 1.2,-1.06667 2.93334,-1.46667 5.8,-2.13333 2.86667,-0.66667 5.46667,-0.66667 4.2,0 6.93333,1.4 2.73334,1.33333 4.06667,4.13333 1.33333,2.73334 1.33333,7.06667 v 18.06666 q 0,1.33334 -0.66666,2.06667 -0.6,0.73333 -1.8,0.73333 -1.26667,0 -1.93334,-0.73333 -0.66666,-0.73333 -0.66666,-2.06667 v -5.2 h 0.6 q -0.53334,2.53334 -2.06667,4.33334 -1.46667,1.8 -3.66667,2.8 -2.2,1 -4.93333,1 z"
             id="path2190"
             style="fill:#262223;fill-opacity:1" /><path
             d="m 804.08847,746.71795 q -5.13333,0 -8.86667,-2 -3.66666,-2.06667 -5.73333,-5.8 -2,-3.73334 -2,-8.93334 0,-5.06666 2,-8.79999 2,-3.8 5.46667,-5.93334 3.53333,-2.13333 8.13333,-2.13333 3.26667,0 5.86667,1.13333 2.6,1.06667 4.4,3.13334 1.86666,2.06666 2.8,5 1,2.93333 1,6.59999 0,1.06667 -0.6,1.6 -0.6,0.46667 -1.73334,0.46667 h -23.2 v -3.53333 h 21.93334 l -1.06667,0.86667 q 0,-3.6 -1.06667,-6.06667 -1.06666,-2.53333 -3.13333,-3.86667 -2,-1.33333 -5.06667,-1.33333 -3.4,0 -5.8,1.6 -2.33333,1.53333 -3.53333,4.33333 -1.2,2.73334 -1.2,6.4 v 0.4 q 0,6.13333 2.93333,9.33333 3,3.2 8.46667,3.2 2.26667,0 4.46667,-0.6 2.26666,-0.6 4.4,-2 0.93333,-0.6 1.66666,-0.53333 0.8,0 1.26667,0.46667 0.46667,0.4 0.6,1.06666 0.2,0.6 -0.13333,1.33334 -0.26667,0.73333 -1.13334,1.26666 -2.2,1.6 -5.2,2.46667 -3,0.86667 -5.93333,0.86667 z"
             id="path2192"
             style="fill:#262223;fill-opacity:1" /><path
             d="m 855.88844,755.25128 q -1.13334,0 -1.73334,-0.66667 -0.6,-0.6 -0.6,-1.8 v -6.66666 h -25.2 q -1.33333,0 -2.06666,-0.73334 -0.73334,-0.73333 -0.73334,-2.06666 v -27.33333 q 0,-1.4 0.66667,-2.06667 0.73333,-0.66667 2.06667,-0.66667 1.26666,0 1.93333,0.66667 0.73333,0.66667 0.73333,2.06667 v 25.79999 h 16.73334 v -25.79999 q 0,-1.4 0.66666,-2.06667 0.73334,-0.66667 2.06667,-0.66667 1.26667,0 1.93333,0.66667 0.73334,0.66667 0.73334,2.06667 v 28.33333 l -2.46667,-2.53334 h 4.86667 q 1.33333,0 2,0.66667 0.73333,0.66667 0.73333,2 v 8.33333 q 0,2.46667 -2.33333,2.46667 z"
             id="path2194"
             style="fill:#262223;fill-opacity:1" /><path
             d="m 895.75507,755.25128 q -1.13333,0 -1.73333,-0.66667 -0.6,-0.6 -0.6,-1.8 v -6.66666 h -25.2 q -1.33333,0 -2.06666,-0.73334 -0.73334,-0.73333 -0.73334,-2.06666 v -27.33333 q 0,-1.4 0.66667,-2.06667 0.73333,-0.66667 2.06667,-0.66667 1.26666,0 1.93333,0.66667 0.73333,0.66667 0.73333,2.06667 v 25.79999 h 16.73334 v -25.79999 q 0,-1.4 0.66666,-2.06667 0.73333,-0.66667 2.06667,-0.66667 1.26666,0 1.93333,0.66667 0.73333,0.66667 0.73333,2.06667 v 28.33333 l -2.46666,-2.53334 h 4.86666 q 1.33334,0 2,0.66667 0.73334,0.66667 0.73334,2 v 8.33333 q 0,2.46667 -2.33334,2.46667 z"
             id="path2196"
             style="fill:#262223;fill-opacity:1" /><path
             d="m 915.55505,746.71795 q -3.33334,0 -6,-1.26667 -2.6,-1.33333 -4.13334,-3.6 -1.53333,-2.26667 -1.53333,-5.06667 0,-3.6 1.8,-5.66666 1.86667,-2.06667 6.06667,-2.93333 4.26666,-0.86667 11.6,-0.86667 h 3 v 3.53333 h -2.93334 q -5.4,0 -8.53333,0.53333 -3.06667,0.46667 -4.33333,1.66667 -1.2,1.2 -1.2,3.4 0,2.73333 1.86666,4.46667 1.93334,1.73333 5.2,1.73333 2.66667,0 4.66667,-1.26667 2.06667,-1.26666 3.2,-3.46666 1.2,-2.2 1.2,-5.06667 v -7.6 q 0,-4.13333 -1.66667,-5.93333 -1.66666,-1.86667 -5.46666,-1.86667 -2.33334,0 -4.66667,0.6 -2.33333,0.6 -4.93333,1.93334 -0.93334,0.46666 -1.6,0.33333 -0.66667,-0.2 -1.06667,-0.73333 -0.4,-0.53334 -0.46667,-1.2 -0.0667,-0.73334 0.26667,-1.4 0.4,-0.66667 1.2,-1.06667 2.93333,-1.46667 5.8,-2.13333 2.86667,-0.66667 5.46667,-0.66667 4.2,0 6.93333,1.4 2.73333,1.33333 4.06667,4.13333 1.33333,2.73334 1.33333,7.06667 v 18.06666 q 0,1.33334 -0.66667,2.06667 -0.6,0.73333 -1.8,0.73333 -1.26666,0 -1.93333,-0.73333 -0.66667,-0.73333 -0.66667,-2.06667 v -5.2 h 0.6 q -0.53333,2.53334 -2.06666,4.33334 -1.46667,1.8 -3.66667,2.8 -2.2,1 -4.93333,1 z"
             id="path2198"
             style="fill:#262223;fill-opacity:1" /><path
             d="m 943.55503,734.18461 q -0.8,0 -1.33333,-0.53333 -0.46667,-0.53333 -0.53333,-1.6 l -1.33334,-29.86666 q -0.0667,-1.6 0.73334,-2.53334 0.86666,-1 2.46666,-1 1.53334,0 2.33334,1 0.8,0.93334 0.73333,2.53334 l -1.33333,29.86666 q 0,1.06667 -0.46667,1.6 -0.46667,0.53333 -1.26667,0.53333 z m 0,12.2 q -1.66666,0 -2.66666,-1 -1,-1.06666 -1,-2.66666 0,-1.6 1,-2.6 1,-1.06667 2.66666,-1.06667 1.66667,0 2.6,1.06667 1,1 1,2.6 0,1.6 -1,2.66666 -0.93333,1 -2.6,1 z"
             id="path2200"
             style="fill:#262223;fill-opacity:1" /></g><g
           aria-label="Everything returns!"
           transform="matrix(1.0751417,0,0,1.0751417,27.375474,276.05121)"
           id="text867"
           style="font-size:93.3333px;line-height:1.25;font-family:Nunito;-inkscape-font-specification:'Nunito, @wght=400';font-variation-settings:'wght' 400;white-space:pre;shape-inside:url(#rect869);display:inline;fill:#262223;fill-opacity:1"><path
             d="m 262.89226,380.70294 q -2.05333,0 -3.17333,-1.02666 -1.02667,-1.12 -1.02667,-3.17334 v -57.39997 q 0,-2.05334 1.02667,-3.08 1.12,-1.12 3.17333,-1.12 h 34.71999 q 1.58666,0 2.42666,0.84 0.84,0.84 0.84,2.33333 0,1.58667 -0.84,2.42667 -0.84,0.84 -2.42666,0.84 h -31.45332 v 22.77332 h 29.49332 q 1.58666,0 2.42666,0.84 0.84,0.74667 0.84,2.33333 0,1.58667 -0.84,2.42667 -0.84,0.84 -2.42666,0.84 h -29.49332 v 23.70666 h 31.45332 q 1.58666,0 2.42666,0.84 0.84,0.84 0.84,2.33333 0,1.58666 -0.84,2.42666 -0.84,0.84 -2.42666,0.84 z"
             id="path2329"
             style="fill:#262223;fill-opacity:1" /><path
             d="m 328.12666,381.35628 q -1.58667,0 -2.8,-0.84 -1.21333,-0.93334 -2.05333,-2.8 l -16.14666,-37.70665 q -0.65333,-1.4 -0.46667,-2.61334 0.18667,-1.21333 1.12,-1.96 0.93333,-0.74666 2.61333,-0.74666 1.49334,0 2.33334,0.65333 0.84,0.65333 1.49333,2.33333 l 15.30666,37.42666 h -2.52 l 15.58666,-37.42666 q 0.65333,-1.68 1.49333,-2.33333 0.84,-0.65333 2.42667,-0.65333 1.49333,0 2.24,0.74666 0.84,0.74667 0.93333,1.96 0.18667,1.12 -0.37333,2.52 l -16.33333,37.79999 q -0.65333,1.86666 -1.96,2.8 -1.21333,0.84 -2.89333,0.84 z"
             id="path2331"
             style="fill:#262223;fill-opacity:1" /><path
             d="m 379.05401,381.54294 q -7.18666,0 -12.41332,-2.8 -5.13334,-2.89333 -8.02667,-8.11999 -2.8,-5.22667 -2.8,-12.50666 0,-7.09334 2.8,-12.32 2.8,-5.32 7.65333,-8.30666 4.94667,-2.98667 11.38666,-2.98667 4.57334,0 8.21333,1.58667 3.64,1.49333 6.16,4.38666 2.61333,2.89333 3.92,7 1.4,4.10666 1.4,9.24 0,1.49333 -0.84,2.23999 -0.84,0.65334 -2.42667,0.65334 h -32.47998 v -4.94667 h 30.70665 l -1.49333,1.21334 q 0,-5.04 -1.49333,-8.49333 -1.49334,-3.54667 -4.38667,-5.41334 -2.8,-1.86666 -7.09333,-1.86666 -4.76,0 -8.12,2.24 -3.26666,2.14666 -4.94666,6.06666 -1.68,3.82667 -1.68,8.96 v 0.56 q 0,8.58666 4.10666,13.06666 4.2,4.48 11.85333,4.48 3.17334,0 6.25333,-0.84 3.17334,-0.84 6.16,-2.8 1.30667,-0.84 2.33333,-0.74667 1.12,0 1.77334,0.65334 0.65333,0.56 0.84,1.49333 0.28,0.84 -0.18667,1.86667 -0.37333,1.02666 -1.58667,1.77333 -3.07999,2.24 -7.27999,3.45333 -4.2,1.21333 -8.30667,1.21333 z"
             id="path2333"
             style="fill:#262223;fill-opacity:1" /><path
             d="m 412.09396,381.35628 q -1.86666,0 -2.89333,-1.02667 -0.93333,-1.02667 -0.93333,-2.89333 v -38.91999 q 0,-1.86666 0.93333,-2.8 0.93333,-1.02666 2.70666,-1.02666 1.77334,0 2.70667,1.02666 1.02667,0.93334 1.02667,2.8 v 7.56 h -0.93334 q 1.49334,-5.50666 5.69333,-8.49333 4.2,-2.98667 10.36,-3.17333 1.4,-0.0933 2.24,0.65333 0.84,0.65333 0.93333,2.33333 0.0933,1.58667 -0.74666,2.52 -0.84,0.93334 -2.61334,1.12 l -1.49333,0.18667 q -6.34666,0.56 -9.79999,4.10666 -3.36,3.45334 -3.36,9.52 v 22.58666 q 0,1.86666 -1.02667,2.89333 -0.93333,1.02667 -2.8,1.02667 z"
             id="path2335"
             style="fill:#262223;fill-opacity:1" /><path
             d="m 454.56066,398.15627 q -1.4,0 -2.24,-0.74667 -0.84,-0.74666 -1.02667,-2.05333 -0.0933,-1.21333 0.46667,-2.52 l 6.43999,-14.46666 v 3.26667 l -17.91999,-41.62665 q -0.56,-1.4 -0.37333,-2.61334 0.18666,-1.21333 1.12,-1.96 0.93333,-0.74666 2.61333,-0.74666 1.49333,0 2.33333,0.65333 0.84,0.65333 1.49334,2.33333 l 15.30666,37.51999 h -2.52 l 15.49332,-37.51999 q 0.74667,-1.68 1.58667,-2.33333 0.84,-0.65333 2.42667,-0.65333 1.49333,0 2.24,0.74666 0.84,0.74667 0.93333,1.96 0.18666,1.12 -0.37333,2.52 l -23.89333,55.25331 q -0.74667,1.68 -1.68,2.33334 -0.84,0.65333 -2.42666,0.65333 z"
             id="path2337"
             style="fill:#262223;fill-opacity:1" /><path
             d="m 511.55901,381.54294 q -5.32,0 -8.96,-1.86666 -3.54666,-1.96 -5.31999,-5.6 -1.77334,-3.73333 -1.77334,-9.05333 v -23.79999 h -6.25333 q -1.58666,0 -2.42666,-0.74667 -0.84,-0.84 -0.84,-2.24 0,-1.4 0.84,-2.14666 0.84,-0.74667 2.42666,-0.74667 h 6.25333 v -10.73333 q 0,-1.86666 1.02667,-2.8 1.02667,-1.02666 2.8,-1.02666 1.77333,0 2.70666,1.02666 1.02667,0.93334 1.02667,2.8 v 10.73333 h 11.76 q 1.58666,0 2.42666,0.74667 0.84,0.74666 0.84,2.14666 0,1.4 -0.84,2.24 -0.84,0.74667 -2.42666,0.74667 h -11.76 v 23.05332 q 0,5.32 2.24,8.12 2.24,2.70667 7.28,2.70667 1.77333,0 2.98666,-0.37334 1.30667,-0.37333 2.14667,-0.37333 0.84,-0.0933 1.4,0.56 0.56,0.65333 0.56,2.24 0,1.12 -0.46667,2.05333 -0.37333,0.93333 -1.4,1.30667 -1.12,0.37333 -2.98666,0.65333 -1.77334,0.37333 -3.26667,0.37333 z"
             id="path2339"
             style="fill:#262223;fill-opacity:1" /><path
             d="m 530.32904,381.35628 q -1.86666,0 -2.8,-1.02667 -0.93333,-1.02667 -0.93333,-2.89333 V 318.0763 q 0,-1.86667 0.93333,-2.8 0.93334,-1.02666 2.8,-1.02666 1.77334,0 2.8,1.02666 1.02667,0.93333 1.02667,2.8 v 27.34666 h -1.21333 q 1.95999,-5.41333 6.34666,-8.12 4.48,-2.8 10.26666,-2.8 5.41333,0 8.96,1.96 3.64,1.96 5.41333,5.97333 1.77333,3.92 1.77333,9.98666 v 25.01333 q 0,1.86666 -1.02666,2.89333 -0.93334,1.02667 -2.70667,1.02667 -1.86667,0 -2.89333,-1.02667 -0.93333,-1.02667 -0.93333,-2.89333 v -24.54666 q 0,-6.34666 -2.52,-9.24 -2.42667,-2.98666 -7.84,-2.98666 -6.25333,0 -9.98666,3.92 -3.64,3.82666 -3.64,10.26666 v 22.58666 q 0,3.92 -3.82667,3.92 z"
             id="path2341"
             style="fill:#262223;fill-opacity:1" /><path
             d="m 583.34244,381.16961 q -1.86667,0 -2.8,-1.02667 -0.93333,-1.12 -0.93333,-3.08 v -38.17331 q 0,-1.96 0.93333,-2.98667 0.93333,-1.02667 2.8,-1.02667 1.77333,0 2.8,1.02667 1.02667,1.02667 1.02667,2.98667 v 38.17331 q 0,1.96 -1.02667,3.08 -0.93333,1.02667 -2.8,1.02667 z m 0,-56.74665 q -2.33333,0 -3.64,-1.21333 -1.30666,-1.30666 -1.30666,-3.45333 0,-2.24 1.30666,-3.36 1.30667,-1.21333 3.64,-1.21333 2.42667,0 3.64,1.21333 1.30666,1.12 1.30666,3.36 0,2.14667 -1.30666,3.45333 -1.21333,1.21333 -3.64,1.21333 z"
             id="path2343"
             style="fill:#262223;fill-opacity:1" /><path
             d="m 604.99579,381.35628 q -1.86666,0 -2.8,-1.02667 -0.93333,-1.02667 -0.93333,-2.89333 v -38.91999 q 0,-1.86666 0.93333,-2.8 0.93334,-1.02666 2.70667,-1.02666 1.77333,0 2.70666,1.02666 1.02667,0.93334 1.02667,2.8 v 8.02667 l -1.02667,-1.12 q 1.96,-5.41333 6.34667,-8.12 4.48,-2.8 10.26666,-2.8 5.41333,0 8.96,1.96 3.64,1.96 5.41333,5.97333 1.77333,3.92 1.77333,9.98666 v 25.01333 q 0,1.86666 -1.02667,2.89333 -0.93333,1.02667 -2.70666,1.02667 -1.86667,0 -2.89333,-1.02667 -0.93334,-1.02667 -0.93334,-2.89333 v -24.54666 q 0,-6.34666 -2.52,-9.24 -2.42666,-2.98666 -7.83999,-2.98666 -6.25333,0 -9.98667,3.92 -3.63999,3.82666 -3.63999,10.26666 v 22.58666 q 0,3.92 -3.82667,3.92 z"
             id="path2345"
             style="fill:#262223;fill-opacity:1" /><path
             d="m 674.34252,398.34294 q -4.94667,0 -9.70667,-1.21334 -4.66666,-1.12 -8.49333,-3.63999 -1.12,-0.65334 -1.49333,-1.58667 -0.28,-0.93333 -0.0933,-1.86667 0.18666,-0.84 0.84,-1.58666 0.65333,-0.65334 1.49333,-0.84 0.93333,-0.18667 1.86666,0.28 4.10667,2.52 7.84,3.45333 3.73333,0.93333 7.37333,0.93333 6.62667,0 9.98666,-3.54666 3.45334,-3.54667 3.45334,-10.26667 v -10.54666 h 0.93333 q -1.4,5.41333 -5.97333,8.58666 -4.48,3.17334 -10.54666,3.17334 -6.25333,0 -10.82667,-2.8 -4.57333,-2.89333 -7.09333,-8.02667 -2.42666,-5.13333 -2.42666,-11.85332 0,-5.04 1.4,-9.14667 1.4,-4.2 4.01333,-7.09333 2.70666,-2.98666 6.44,-4.57333 3.82666,-1.68 8.49333,-1.68 6.15999,0 10.63999,3.17333 4.48,3.08 5.78667,8.4 l -0.93334,1.12 v -8.68 q 0,-1.86666 0.93334,-2.8 1.02666,-1.02666 2.8,-1.02666 1.86666,0 2.79999,1.02666 0.93334,0.93334 0.93334,2.8 v 38.91999 q 0,10.35999 -5.22667,15.58666 -5.13333,5.32 -15.21332,5.32 z m -1.12,-24.82666 q 4.38666,0 7.55999,-1.96 3.17333,-2.05333 4.85333,-5.78666 1.77334,-3.73334 1.77334,-8.77333 0,-7.56 -3.82667,-11.94667 -3.82666,-4.47999 -10.35999,-4.47999 -4.29334,0 -7.46667,2.05333 -3.17333,1.96 -4.94666,5.69333 -1.68,3.64 -1.68,8.68 0,7.55999 3.82666,12.03999 3.82667,4.48 10.26667,4.48 z"
             id="path2347"
             style="fill:#262223;fill-opacity:1" /><path
             d="m 736.87581,381.35628 q -1.86667,0 -2.89334,-1.02667 -0.93333,-1.02667 -0.93333,-2.89333 v -38.91999 q 0,-1.86666 0.93333,-2.8 0.93334,-1.02666 2.70667,-1.02666 1.77333,0 2.70667,1.02666 1.02666,0.93334 1.02666,2.8 v 7.56 h -0.93333 q 1.49333,-5.50666 5.69333,-8.49333 4.2,-2.98667 10.36,-3.17333 1.4,-0.0933 2.24,0.65333 0.83999,0.65333 0.93333,2.33333 0.0933,1.58667 -0.74667,2.52 -0.84,0.93334 -2.61333,1.12 l -1.49333,0.18667 q -6.34667,0.56 -9.8,4.10666 -3.36,3.45334 -3.36,9.52 v 22.58666 q 0,1.86666 -1.02666,2.89333 -0.93334,1.02667 -2.8,1.02667 z"
             id="path2349"
             style="fill:#262223;fill-opacity:1" /><path
             d="m 786.30429,381.54294 q -7.18667,0 -12.41333,-2.8 -5.13333,-2.89333 -8.02666,-8.11999 -2.8,-5.22667 -2.8,-12.50666 0,-7.09334 2.8,-12.32 2.8,-5.32 7.65333,-8.30666 4.94666,-2.98667 11.38666,-2.98667 4.57333,0 8.21333,1.58667 3.64,1.49333 6.16,4.38666 2.61333,2.89333 3.92,7 1.39999,4.10666 1.39999,9.24 0,1.49333 -0.83999,2.23999 -0.84,0.65334 -2.42667,0.65334 h -32.47999 v -4.94667 h 30.70666 l -1.49334,1.21334 q 0,-5.04 -1.49333,-8.49333 -1.49333,-3.54667 -4.38666,-5.41334 -2.8,-1.86666 -7.09333,-1.86666 -4.76,0 -8.12,2.24 -3.26667,2.14666 -4.94667,6.06666 -1.68,3.82667 -1.68,8.96 v 0.56 q 0,8.58666 4.10667,13.06666 4.2,4.48 11.85333,4.48 3.17333,0 6.25333,-0.84 3.17333,-0.84 6.16,-2.8 1.30666,-0.84 2.33333,-0.74667 1.12,0 1.77333,0.65334 0.65334,0.56 0.84,1.49333 0.28,0.84 -0.18666,1.86667 -0.37334,1.02666 -1.58667,1.77333 -3.08,2.24 -7.28,3.45333 -4.2,1.21333 -8.30666,1.21333 z"
             id="path2351"
             style="fill:#262223;fill-opacity:1" /><path
             d="m 833.67931,381.54294 q -5.32,0 -8.96,-1.86666 -3.54666,-1.96 -5.31999,-5.6 -1.77334,-3.73333 -1.77334,-9.05333 v -23.79999 h -6.25333 q -1.58666,0 -2.42666,-0.74667 -0.84,-0.84 -0.84,-2.24 0,-1.4 0.84,-2.14666 0.84,-0.74667 2.42666,-0.74667 h 6.25333 v -10.73333 q 0,-1.86666 1.02667,-2.8 1.02667,-1.02666 2.8,-1.02666 1.77333,0 2.70666,1.02666 1.02667,0.93334 1.02667,2.8 v 10.73333 h 11.76 q 1.58666,0 2.42666,0.74667 0.84,0.74666 0.84,2.14666 0,1.4 -0.84,2.24 -0.84,0.74667 -2.42666,0.74667 h -11.76 v 23.05332 q 0,5.32 2.24,8.12 2.24,2.70667 7.28,2.70667 1.77333,0 2.98666,-0.37334 1.30667,-0.37333 2.14667,-0.37333 0.84,-0.0933 1.4,0.56 0.56,0.65333 0.56,2.24 0,1.12 -0.46667,2.05333 -0.37333,0.93333 -1.4,1.30667 -1.12,0.37333 -2.98666,0.65333 -1.77334,0.37333 -3.26667,0.37333 z"
             id="path2353"
             style="fill:#262223;fill-opacity:1" /><path
             d="m 864.19933,381.54294 q -5.50666,0 -9.14666,-1.96 -3.54667,-2.05333 -5.41333,-6.06666 -1.77334,-4.01333 -1.77334,-9.98666 v -25.01333 q 0,-1.96 0.93334,-2.89333 1.02666,-0.93333 2.8,-0.93333 1.86666,0 2.79999,0.93333 1.02667,0.93333 1.02667,2.89333 v 24.91999 q 0,5.97333 2.42667,8.96 2.52,2.89333 7.83999,2.89333 5.78667,0 9.42667,-3.92 3.64,-3.91999 3.64,-10.26666 v -22.58666 q 0,-1.96 0.93333,-2.89333 1.02666,-0.93333 2.89333,-0.93333 1.77333,0 2.70667,0.93333 1.02666,0.93333 1.02666,2.89333 v 38.91999 q 0,3.92 -3.64,3.92 -1.77333,0 -2.79999,-1.02667 -0.93334,-1.02667 -0.93334,-2.89333 v -8.49333 l 1.21334,1.30666 q -1.86667,5.50667 -6.16,8.4 -4.2,2.89333 -9.8,2.89333 z"
             id="path2355"
             style="fill:#262223;fill-opacity:1" /><path
             d="m 904.33272,381.35628 q -1.86667,0 -2.89334,-1.02667 -0.93333,-1.02667 -0.93333,-2.89333 v -38.91999 q 0,-1.86666 0.93333,-2.8 0.93334,-1.02666 2.70667,-1.02666 1.77333,0 2.70666,1.02666 1.02667,0.93334 1.02667,2.8 v 7.56 h -0.93333 q 1.49333,-5.50666 5.69333,-8.49333 4.2,-2.98667 10.36,-3.17333 1.39999,-0.0933 2.23999,0.65333 0.84,0.65333 0.93334,2.33333 0.0933,1.58667 -0.74667,2.52 -0.84,0.93334 -2.61333,1.12 l -1.49333,0.18667 q -6.34667,0.56 -9.8,4.10666 -3.36,3.45334 -3.36,9.52 v 22.58666 q 0,1.86666 -1.02667,2.89333 -0.93333,1.02667 -2.79999,1.02667 z"
             id="path2357"
             style="fill:#262223;fill-opacity:1" /><path
             d="m 937.65271,381.35628 q -1.86666,0 -2.8,-1.02667 -0.93333,-1.02667 -0.93333,-2.89333 v -38.91999 q 0,-1.86666 0.93333,-2.8 0.93334,-1.02666 2.70667,-1.02666 1.77333,0 2.70666,1.02666 1.02667,0.93334 1.02667,2.8 v 8.02667 l -1.02667,-1.12 q 1.96,-5.41333 6.34667,-8.12 4.48,-2.8 10.26666,-2.8 5.41333,0 8.96,1.96 3.64,1.96 5.41333,5.97333 1.77333,3.92 1.77333,9.98666 v 25.01333 q 0,1.86666 -1.02666,2.89333 -0.93334,1.02667 -2.70667,1.02667 -1.86667,0 -2.89333,-1.02667 -0.93333,-1.02667 -0.93333,-2.89333 v -24.54666 q 0,-6.34666 -2.52,-9.24 -2.42667,-2.98666 -7.84,-2.98666 -6.25333,0 -9.98666,3.92 -3.64,3.82666 -3.64,10.26666 v 22.58666 q 0,3.92 -3.82667,3.92 z"
             id="path2359"
             style="fill:#262223;fill-opacity:1" /><path
             d="m 1002.2394,381.54294 q -4.19999,0 -8.49332,-1.02666 -4.2,-1.02667 -7.84,-3.54667 -0.93333,-0.65333 -1.30667,-1.49333 -0.37333,-0.93333 -0.28,-1.77333 0.18667,-0.93334 0.74667,-1.58667 0.65333,-0.65333 1.49333,-0.74667 0.93334,-0.18666 2.05334,0.37334 3.64,2.24 6.99999,3.17333 3.45334,0.84 6.81336,0.84 5.32,0 8.0266,-1.96 2.7067,-1.96 2.7067,-5.32 0,-2.61333 -1.7733,-4.10666 -1.7734,-1.58667 -5.6,-2.42667 l -8.49336,-1.86667 q -5.87999,-1.21333 -8.77333,-4.19999 -2.8,-2.98667 -2.8,-7.74667 0,-4.2 2.14667,-7.18666 2.24,-3.08 6.25333,-4.76 4.01333,-1.68 9.33329,-1.68 4.1067,0 7.7467,1.12 3.7333,1.02667 6.72,3.36 0.9333,0.65333 1.2133,1.58667 0.3734,0.83999 0.093,1.77333 -0.1867,0.84 -0.84,1.49333 -0.6534,0.56 -1.5867,0.65333 -0.9333,0.0933 -1.96,-0.56 -2.8,-1.86666 -5.6933,-2.70666 -2.8934,-0.93333 -5.6934,-0.93333 -5.22662,0 -7.93329,2.05333 -2.70667,2.05333 -2.70667,5.41333 0,2.61333 1.68,4.29333 1.68,1.68 5.22667,2.42667 l 8.49329,1.77333 q 6.0667,1.30667 9.0534,4.2 3.08,2.8 3.08,7.65333 0,6.16 -4.9467,9.79999 -4.9467,3.64 -13.16,3.64 z"
             id="path2361"
             style="fill:#262223;fill-opacity:1" /><path
             d="m 1035.4661,363.99628 q -1.12,0 -1.8666,-0.74666 -0.6534,-0.74667 -0.7467,-2.24 l -1.8667,-41.81332 q -0.093,-2.24 1.0267,-3.54667 1.2133,-1.39999 3.4533,-1.39999 2.1467,0 3.2667,1.39999 1.12,1.30667 1.0266,3.54667 l -1.8666,41.81332 q 0,1.49333 -0.6534,2.24 -0.6533,0.74666 -1.7733,0.74666 z m 0,17.08 q -2.3333,0 -3.7333,-1.4 -1.4,-1.49334 -1.4,-3.73333 0,-2.24 1.4,-3.64 1.4,-1.49334 3.7333,-1.49334 2.3333,0 3.64,1.49334 1.4,1.4 1.4,3.64 0,2.23999 -1.4,3.73333 -1.3067,1.4 -3.64,1.4 z"
             id="path2363"
             style="fill:#262223;fill-opacity:1" /></g></g></g></g></svg>
